<?xml version="1.0" encoding="UTF-8"?>
<svg version="1.1" xmlns="http://www.w3.org/2000/svg" width="400" height="231">
<path d="M0 0 C3.93103448 3.19396552 3.93103448 3.19396552 4.5 6.75 C3.81768764 12.03792079 1.41720733 14.67847582 -2 18.625 C-2.51433594 19.24761719 -3.02867187 19.87023437 -3.55859375 20.51171875 C-5.81157673 23.20944643 -8.10731195 25.7297569 -10.625 28.1875 C-14.39767855 31.9920551 -14.39767855 31.9920551 -17 36.625 C-15.76678955 42.31306371 -12.60857076 47.40174889 -9.94921875 52.53125 C-8.18952254 56.41271982 -7.11060997 60.51910858 -6 64.625 C-1.59229496 61.72236498 2.71840843 58.70998956 7 55.625 C8.18681 54.76987489 9.3743039 53.91569808 10.5625 53.0625 C11.13363525 52.65056396 11.70477051 52.23862793 12.29321289 51.81420898 C13.94637096 50.66236619 15.65860283 49.59678156 17.37109375 48.53515625 C20.85573152 46.00322776 20.8923774 43.68628288 22 39.625 C26.49848252 35.66117319 31.76137252 36.14487642 37.4375 36.0625 C43.38029708 35.95114988 48.38174766 35.76769684 54 33.625 C57.40392459 33.16597689 60.80327432 32.77175367 63.71484375 34.84765625 C66.22475208 38.31880607 65.4401197 42.53994533 65 46.625 C64.38989019 49.58760528 63.68237515 50.96576186 62 53.625 C56.41902915 56.59858815 50.90842472 57.48455147 44.6875 58.3125 C43.78193359 58.44205078 42.87636719 58.57160156 41.94335938 58.70507812 C35.41629464 59.625 35.41629464 59.625 33 59.625 C32.62875 60.68847656 32.62875 60.68847656 32.25 61.7734375 C27.59115571 72.40142604 17.59955772 82.24647745 9.328125 90.19140625 C6.53438013 93.05954568 6.53438013 93.05954568 5 96.625 C5.38037558 99.55974971 5.38037558 99.55974971 6.3125 102.6875 C8.58699197 111.76533964 9.08584619 120.49170056 9.1875 129.8125 C9.20063232 130.56104248 9.21376465 131.30958496 9.22729492 132.08081055 C9.23842188 139.83629736 7.95441633 146.39659089 3 152.625 C-0.757453 156.09290017 -4.47531912 157.76084387 -9.3125 159.1875 C-10.56675781 159.58066406 -11.82101562 159.97382813 -13.11328125 160.37890625 C-14.7380499 160.810172 -16.36765823 161.22334885 -18 161.625 C-19.03753418 161.88321533 -20.07506836 162.14143066 -21.14404297 162.4074707 C-34.46287049 165.31527629 -47.91791791 165.35010726 -61.5 165.6875 C-66.32318514 165.8158381 -71.14604324 165.95244771 -75.96875 166.09765625 C-77.14383621 166.13272781 -78.31892242 166.16779938 -79.52961731 166.20393372 C-89.38426402 166.53239779 -99.17346366 167.28709813 -108.98901367 168.20214844 C-119.04604096 169.11454771 -128.97178101 168.77108217 -139 167.625 C-139.27585938 168.22570312 -139.55171875 168.82640625 -139.8359375 169.4453125 C-144.06026533 177.35529549 -152.30631786 179.48584887 -160.18359375 182.234375 C-163.11481644 183.26566537 -165.78803794 184.46879279 -168.5 186 C-175.46109601 189.23193744 -180.3839543 187.70471011 -187.3125 185.25 C-190.88735881 183.92826842 -193.82621453 182.74085698 -197 180.625 C-200.10970189 184.14932881 -201.67215019 187.1307391 -203 191.625 C-204 192.625 -204 192.625 -206.6875 193 C-211.21939151 192.48695568 -212.7383612 190.73132266 -216 187.625 C-217.0725 188.099375 -218.145 188.57375 -219.25 189.0625 C-233.83223899 194.4281478 -247.3941159 189.54716657 -261 183.625 C-268.36983909 180.10114316 -274.7245017 175.83025828 -281 170.625 C-281.93585938 169.89023437 -281.93585938 169.89023437 -282.890625 169.140625 C-284.3021267 168.0193386 -285.65837654 166.82902106 -287 165.625 C-287 164.965 -287 164.305 -287 163.625 C-287.88751953 163.51285156 -287.88751953 163.51285156 -288.79296875 163.3984375 C-292.88383568 162.7177386 -296.14823777 162.09956215 -299.0625 159 C-301.5829744 154.60949621 -301.73544649 152.60969286 -301 147.625 C-299.4375 145.625 -299.4375 145.625 -297 144.625 C-293.2558336 144.36225148 -290.56471391 144.43676203 -287 145.625 C-286.95875 144.944375 -286.9175 144.26375 -286.875 143.5625 C-284.97904134 137.19749592 -279.68373377 132.74548129 -274 129.625 C-268.22103124 127.11557392 -265.48326889 126.54445519 -259 127.625 C-259.99 123.005 -260.98 118.385 -262 113.625 C-258.43688534 110.952664 -256.15414253 109.85236029 -252 108.625 C-253.216875 108.233125 -254.43375 107.84125 -255.6875 107.4375 C-259.795845 105.85960467 -262.3292472 104.23837143 -265 100.625 C-265.57328136 98.39882715 -265.95013877 96.17577818 -266.3359375 93.91015625 C-267.31181206 90.55199967 -269.26460657 88.51270519 -271.66015625 86.03515625 C-273.33882024 84.26839911 -274.00239775 83.20285891 -273.9921875 80.7421875 C-273.95351563 80.00226563 -273.91484375 79.26234375 -273.875 78.5 C-273.82113926 75.12831753 -274.16989971 72.72028012 -275.5 69.625 C-277.33361138 65.31774309 -277.4996336 61.25621917 -277 56.625 C-276.67 55.965 -276.34 55.305 -276 54.625 C-275.89540113 52.62599937 -275.81605903 50.62564506 -275.75 48.625 C-275.13763958 40.22823963 -272.7326469 33.74666736 -266.375 28.0625 C-264.15088517 26.2862273 -262.76607725 25.54702575 -260 24.625 C-259.05134015 22.95465264 -259.05134015 22.95465264 -258.3125 20.9375 C-255.58337035 15.19087982 -251.43832134 12.18253018 -245.71484375 9.58984375 C-239.73690873 7.49999655 -234.17182293 7.41933603 -227.8828125 7.71484375 C-224.86519655 7.62079881 -223.61840604 6.97576502 -221 5.625 C-218.2734375 5.39453125 -218.2734375 5.39453125 -215.375 5.4375 C-214.41335937 5.44394531 -213.45171875 5.45039063 -212.4609375 5.45703125 C-210 5.625 -210 5.625 -208 6.625 C-205.50542871 6.89879441 -203.01107933 7.07049145 -200.5078125 7.24609375 C-196.78710903 7.80825611 -194.64890186 8.97609814 -192 11.625 C-190.02154025 11.71574226 -190.02154025 11.71574226 -187.8125 11.5 C-182.67189633 11.38429509 -180.18363594 12.67184522 -176 15.625 C-175.01 16.6459375 -175.01 16.6459375 -174 17.6875 C-171.35028828 20.25440823 -168.37007235 21.18959882 -165 22.625 C-164.01 24.11 -164.01 24.11 -163 25.625 C-161.14037611 26.27038076 -161.14037611 26.27038076 -159.0625 26.5625 C-156.16630951 27.19210663 -155.2155032 27.4094968 -153.0625 29.5625 C-150.93667429 33.68910284 -150.91357931 37.04470335 -151 41.625 C-150.360625 41.893125 -149.72125 42.16125 -149.0625 42.4375 C-147 43.625 -147 43.625 -146 46.625 C-146.04735587 49.8882499 -146.19436587 53.13891409 -146.35546875 56.3984375 C-145.92330177 60.32118398 -144.50961381 61.67193987 -142 64.625 C-141.5390625 66.90625 -141.5390625 66.90625 -141.625 69.125 C-141.63789063 69.8571875 -141.65078125 70.589375 -141.6640625 71.34375 C-142.05359857 73.98897168 -142.92605681 76.18500106 -144 78.625 C-142.12577848 79.10720263 -140.25058246 79.58561833 -138.375 80.0625 C-137.33085937 80.32933594 -136.28671875 80.59617187 -135.2109375 80.87109375 C-134.15132812 81.11988281 -133.09171875 81.36867188 -132 81.625 C-130.95585937 81.87765625 -129.91171875 82.1303125 -128.8359375 82.390625 C-126.04227527 82.88175524 -126.04227527 82.88175524 -124.015625 81.55078125 C-123.43296875 81.01839844 -122.8503125 80.48601562 -122.25 79.9375 C-113.02927377 72.50198956 -103.49051596 71.46784834 -92 72.625 C-89.16003688 73.37215808 -86.60552947 74.32963666 -83.91015625 75.48828125 C-80.31469588 76.89268255 -76.69412156 77.70757477 -72.9375 78.5625 C-63.9426908 80.68314168 -56.50141569 84.29504675 -49 89.625 C-48.67 88.635 -48.34 87.645 -48 86.625 C-45.22210466 85.05584076 -42.36653417 83.75109884 -39.46875 82.41796875 C-36.75612375 80.828188 -36.75612375 80.828188 -36.1640625 77.8515625 C-35.6986119 68.69770067 -35.92596288 59.58295417 -36.4375 50.4375 C-36.47665527 49.71908936 -36.51581055 49.00067871 -36.55615234 48.26049805 C-36.75961748 41.46916873 -36.75961748 41.46916873 -40.5625 36.3125 C-43 33.625 -43 33.625 -43.5625 30.1875 C-42.79384981 25.31938213 -41.15239448 22.28715279 -37.19921875 19.234375 C-35.82741374 18.26478854 -34.4549916 17.29607478 -33.08203125 16.328125 C-30.0614142 13.85722625 -27.96772611 10.86268025 -25.65625 7.7421875 C-19.36798835 -0.29610923 -9.77542542 -4.48040332 0 0 Z M-15 5.625 C-16.28687916 7.78056511 -16.28687916 7.78056511 -17.375 10.375 C-20.63107019 17.11698062 -24.0343839 20.18823382 -30.6875 23.5625 C-35.11177672 25.80247587 -35.11177672 25.80247587 -37.6875 30 C-37.790625 30.86625 -37.89375 31.7325 -38 32.625 C-34.34431646 36.51057793 -34.34431646 36.51057793 -29.375 37.95703125 C-26.89975234 37.93945137 -24.46515547 37.84423319 -22 37.625 C-21.88785156 37.01914062 -21.77570313 36.41328125 -21.66015625 35.7890625 C-19.13264646 25.05127582 -11.17508577 18.58297633 -3.43359375 11.21875 C-1.77707888 9.73444968 -1.77707888 9.73444968 -2 7.625 C-3.60064843 7.09345258 -5.20568874 6.57511647 -6.8125 6.0625 C-8.15248047 5.62744141 -8.15248047 5.62744141 -9.51953125 5.18359375 C-12.11215139 4.37520444 -12.11215139 4.37520444 -15 5.625 Z M51.4375 40.625 C43.51135759 43.65872566 35.3410926 42.9553403 27 42.625 C25.91360918 46.11129869 25.91360918 46.11129869 26.99609375 49.42578125 C27.70958984 50.17408203 27.70958984 50.17408203 28.4375 50.9375 C29.283125 51.824375 30.12875 52.71125 31 53.625 C31.67289062 53.48835938 32.34578125 53.35171875 33.0390625 53.2109375 C35.19747913 52.7838102 37.35950481 52.37480288 39.5234375 51.9765625 C40.79445313 51.73679687 42.06546875 51.49703125 43.375 51.25 C44.64085937 51.01539063 45.90671875 50.78078125 47.2109375 50.5390625 C54.12646278 48.95254314 54.12646278 48.95254314 59.5 44.6875 C60.07912421 42.29861265 59.81954693 40.9197314 59 38.625 C55.74509417 38.625 54.36507935 39.30552761 51.4375 40.625 Z M22 52.625 C21.50113281 53.09808594 21.00226563 53.57117188 20.48828125 54.05859375 C13.21944896 60.75322744 5.03354111 67.46913363 -4 71.625 C-2.14506608 77.34437959 -0.06896109 82.98055275 2 88.625 C5.61253308 87.42082231 5.98062647 86.50502897 8 83.375 C10.95657823 78.98416679 14.16215224 74.98880586 17.625 71 C21.57323386 66.43571069 25.01346684 61.877179 28 56.625 C26.02 55.305 24.04 53.985 22 52.625 Z M-31 45.625 C-31.10099995 47.12217571 -31.12963139 48.62442856 -31.125 50.125 C-31.12757813 50.9396875 -31.13015625 51.754375 -31.1328125 52.59375 C-31.03858093 55.77541488 -31.03858093 55.77541488 -30.48046875 59.50390625 C-29.99156927 63.66908713 -29.97690792 67.74139507 -30.04296875 71.93359375 C-30.05320068 72.59022003 -30.06343262 73.24684631 -30.07397461 73.92337036 C-30.11913705 76.65615126 -30.16806397 79.38831784 -30.24682617 82.12036133 C-30.47269419 90.3847635 -30.682069 98.43529582 -26 105.625 C-23.19177403 108.03538525 -20.47606721 109.36975351 -17 110.625 C-17 111.615 -17 112.605 -17 113.625 C-23.90904144 113.13000309 -29.65123568 111.65262638 -36.0625 109.0625 C-36.9479248 108.70752441 -37.83334961 108.35254883 -38.74560547 107.98681641 C-44.33990311 105.6261206 -48.346597 103.2095961 -52.296875 98.51171875 C-58.02905488 92.1616204 -67.46152518 88.07035525 -75.93554688 87.49316406 C-85.07905367 87.0373603 -85.07905367 87.0373603 -94 88.625 C-92.08864614 85.08899535 -90.37357234 82.83527154 -87 80.625 C-99.12125266 78.60479122 -110.18334125 79.50236297 -121 85.625 C-120.67 86.615 -120.34 87.605 -120 88.625 C-117.98660043 89.52755843 -115.9684752 90.4204152 -113.93359375 91.2734375 C-96.97796557 99.08521826 -86.5655214 108.84476917 -79.93359375 126.45703125 C-77.69314798 134.02259449 -77.54309723 141.75301906 -77.37744141 149.59204102 C-77.34336182 150.9115979 -77.34336182 150.9115979 -77.30859375 152.2578125 C-77.29626709 153.05074707 -77.28394043 153.84368164 -77.27124023 154.66064453 C-77.16921781 156.85827575 -77.16921781 156.85827575 -75 158.625 C-72.22757285 158.67855986 -72.22757285 158.67855986 -68.8125 158.3125 C-62.41342769 157.78485183 -56.03607074 157.53006489 -49.61663818 157.39028931 C-26.58530468 157.93770564 -26.58530468 157.93770564 -6 149.625 C-4.32793028 147.6995003 -4.32793028 147.6995003 -3.1875 145.625 C-2.78917969 144.965 -2.39085937 144.305 -1.98046875 143.625 C7.16983651 124.95983548 -4.51546133 96.15600374 -10.00292969 77.97558594 C-11.09476444 74.30655066 -12.1508218 70.62802885 -13.1953125 66.9453125 C-13.37759399 66.30289612 -13.55987549 65.66047974 -13.74768066 64.99859619 C-14.64144592 61.84534222 -15.53265571 58.69137277 -16.42285156 55.53710938 C-16.9057666 53.83651367 -16.9057666 53.83651367 -17.3984375 52.1015625 C-17.82648682 50.5868335 -17.82648682 50.5868335 -18.26318359 49.04150391 C-18.92039075 46.64512898 -18.92039075 46.64512898 -20 44.625 C-21.64574566 44.59811849 -23.29161413 44.57865877 -24.9375 44.5625 C-25.85402344 44.55089844 -26.77054687 44.53929687 -27.71484375 44.52734375 C-29.96593327 44.36550951 -29.96593327 44.36550951 -31 45.625 Z M-200 85.625 C-200.33 86.615 -200.66 87.605 -201 88.625 C-201.56847656 88.43164062 -202.13695312 88.23828125 -202.72265625 88.0390625 C-205.46536498 87.54038818 -206.84845141 88.02181527 -209.4375 89 C-214.40792829 90.84986375 -218.75776796 91.79788398 -224.08203125 91.50390625 C-225.01337891 91.45556641 -225.94472656 91.40722656 -226.90429688 91.35742188 C-227.86400391 91.30134766 -228.82371094 91.24527344 -229.8125 91.1875 C-230.79154297 91.13529297 -231.77058594 91.08308594 -232.77929688 91.02929688 C-235.1865609 90.90012661 -237.59335638 90.76518357 -240 90.625 C-240 92.605 -240 94.585 -240 96.625 C-238.68 96.625 -237.36 96.625 -236 96.625 C-235.67 99.265 -235.34 101.905 -235 104.625 C-235.99 104.625 -236.98 104.625 -238 104.625 C-238.33 103.965 -238.66 103.305 -239 102.625 C-239 103.945 -239 105.265 -239 106.625 C-238.54625 107.07875 -238.0925 107.5325 -237.625 108 C-236 109.625 -236 109.625 -235.4296875 112.5703125 C-234.36148289 115.6491795 -234.36148289 115.6491795 -232.31494141 116.52099609 C-230.05295856 117.20649334 -227.82494898 117.69875935 -225.5 118.125 C-224.27313477 118.36307373 -224.27313477 118.36307373 -223.02148438 118.60595703 C-217.03134314 119.66101169 -211.56074208 120.60740492 -206 117.625 C-201.28870918 114.24487722 -196.77744438 110.69110086 -195.3046875 104.8828125 C-195.2143657 100.53446276 -195.87860438 97.43307903 -198 93.625 C-196.68 92.635 -195.36 91.645 -194 90.625 C-194.495 88.645 -194.495 88.645 -195 86.625 C-196.65 86.295 -198.3 85.965 -200 85.625 Z M-42.0625 91.125 C-43.16271484 91.82109375 -43.16271484 91.82109375 -44.28515625 92.53125 C-44.85105469 92.8921875 -45.41695312 93.253125 -46 93.625 C-43.87985899 98.57199568 -40.58055764 100.32466133 -36.05859375 102.8046875 C-35.37925781 103.07539062 -34.69992187 103.34609375 -34 103.625 C-33.34 103.295 -32.68 102.965 -32 102.625 C-32.27714844 102.11710937 -32.55429687 101.60921875 -32.83984375 101.0859375 C-35.0334683 96.9172702 -36.52413155 93.38368447 -37 88.625 C-38.89945294 88.625 -40.50909875 90.13871349 -42.0625 91.125 Z M-247.625 114.625 C-249.40777344 115.181875 -249.40777344 115.181875 -251.2265625 115.75 C-252.59941406 116.183125 -252.59941406 116.183125 -254 116.625 C-253.49855469 117.23859375 -252.99710938 117.8521875 -252.48046875 118.484375 C-251 120.625 -251 120.625 -251.3125 122.875 C-251.539375 123.4525 -251.76625 124.03 -252 124.625 C-252.99 124.625 -253.98 124.625 -255 124.625 C-254.67 126.275 -254.34 127.925 -254 129.625 C-253.01 129.955 -252.02 130.285 -251 130.625 C-248.89636812 134.02317458 -248.01377683 136.22547197 -247.875 140.25 C-247.38531336 143.70490023 -247.38531336 143.70490023 -244.94140625 144.95703125 C-242.65273219 145.96747549 -240.37837335 146.85142806 -238 147.625 C-238.05220703 146.05298828 -238.05220703 146.05298828 -238.10546875 144.44921875 C-238.13360937 143.07032853 -238.16090924 141.69142098 -238.1875 140.3125 C-238.21263672 139.62220703 -238.23777344 138.93191406 -238.26367188 138.22070312 C-238.33944168 132.99258635 -238.33944168 132.99258635 -236.4453125 130.94140625 C-235.96835938 130.50699219 -235.49140625 130.07257813 -235 129.625 C-235.00029422 127.32131173 -235.00029422 127.32131173 -235.6875 124.875 C-235.89503906 123.99585938 -236.10257813 123.11671875 -236.31640625 122.2109375 C-237.16564181 118.99840071 -238.032424 115.80417828 -239 112.625 C-242.05944506 112.625 -244.7151803 113.71211539 -247.625 114.625 Z M-256 121.625 C-255 123.625 -255 123.625 -255 123.625 Z M-259 127.625 C-259 128.615 -259 129.605 -259 130.625 C-258.34 130.295 -257.68 129.965 -257 129.625 C-257.66 128.965 -258.32 128.305 -259 127.625 Z M-173 132.625 C-173.55429688 133.73359375 -174.10859375 134.8421875 -174.6796875 135.984375 C-176.78645833 140.19791667 -178.89322917 144.41145833 -181 148.625 C-181.31211426 149.34469971 -181.62422852 150.06439941 -181.94580078 150.8059082 C-183 152.625 -183 152.625 -185.8125 153.62109375 C-189.95996576 153.62617643 -191.01054572 152.49478441 -194 149.6875 C-204.9703016 140.14616577 -217.95925941 132.59949496 -233 133.625 C-231.515 134.615 -231.515 134.615 -230 135.625 C-230 136.285 -230 136.945 -230 137.625 C-230.99 138.285 -231.98 138.945 -233 139.625 C-231.02 140.615 -231.02 140.615 -229 141.625 C-229 142.615 -229 143.605 -229 144.625 C-228.40832031 144.78355469 -227.81664062 144.94210938 -227.20703125 145.10546875 C-221.82939655 146.69331847 -218.69945878 148.24406197 -215 152.625 C-213.87580274 153.8965435 -212.75073231 155.16731532 -211.625 156.4375 C-209.83138854 158.48514227 -208.07045871 160.53582038 -206.3828125 162.671875 C-199.29157901 171.42564648 -188.87651747 177.82464813 -177.78515625 180.07421875 C-167.39735859 180.87328011 -154.39393973 176.21728731 -146.375 169.75 C-138.48474971 161.68228733 -133.07826526 149.83895874 -132 138.625 C-136.88940896 136.35809221 -141.54833781 134.85273621 -146.875 133.9375 C-147.5980835 133.81012451 -148.32116699 133.68274902 -149.06616211 133.55151367 C-157.03913966 132.27064851 -164.95112664 132.35301054 -173 132.625 Z M-276.625 142.0625 C-277.54539062 142.82433594 -278.46578125 143.58617187 -279.4140625 144.37109375 C-282.00123156 146.53382529 -282.00123156 146.53382529 -284.0390625 148.89453125 C-286.45801171 151.02918165 -287.58168952 151.0613712 -290.75 150.875 C-291.54921875 150.83890625 -292.3484375 150.8028125 -293.171875 150.765625 C-293.77515625 150.71921875 -294.3784375 150.6728125 -295 150.625 C-295 151.945 -295 153.265 -295 154.625 C-293.52507444 155.99627159 -293.52507444 155.99627159 -291.5 157 C-288.55301685 158.62551848 -285.91957356 160.4264481 -283.26171875 162.48046875 C-267.66313714 174.29988181 -244.9565565 185.28404668 -225 182.625 C-222.50880786 182.13565869 -220.37830753 181.53102192 -218 180.625 C-218 179.305 -218 177.985 -218 176.625 C-214.46399535 178.53635386 -212.21027154 180.25142766 -210 183.625 C-208.08533633 183.50322312 -208.08533633 183.50322312 -206 182.625 C-204.01077927 180.39302871 -204.01077927 180.39302871 -203 177.625 C-203.72837501 174.71149996 -205.17936 173.44745477 -207.31640625 171.33203125 C-209.8644439 168.76174 -212.15747484 166.12087323 -214.4375 163.3125 C-215.21480469 162.35859375 -215.99210937 161.4046875 -216.79296875 160.421875 C-218.69296036 158.01409802 -220.48147148 155.56677295 -222.25 153.0625 C-224.46553073 150.0362583 -226.22923309 148.51223927 -230 147.625 C-231.65 148.945 -233.3 150.265 -235 151.625 C-234.34 152.388125 -233.68 153.15125 -233 153.9375 C-231 156.625 -231 156.625 -231 159.625 C-233.94948157 158.24593591 -236.44270836 156.61194507 -239.0625 154.6875 C-249.09985073 148.02857464 -258.47805765 148.33441806 -270 149.625 C-269.625 147.703125 -269.625 147.703125 -269 145.625 C-268.01 145.00625 -268.01 145.00625 -267 144.375 C-264.61080479 142.28445419 -264.61590652 141.49927665 -264.25 138.4375 C-264.1675 137.179375 -264.085 135.92125 -264 134.625 C-268.56327331 134.625 -273.34682054 139.32452758 -276.625 142.0625 Z M-258.5625 136.875 C-260.34463752 138.78982361 -260.34463752 138.78982361 -261 142.625 C-257.7 142.955 -254.4 143.285 -251 143.625 C-251.66 143.295 -252.32 142.965 -253 142.625 C-253 141.635 -253 140.645 -253 139.625 C-253.99 139.625 -254.98 139.625 -256 139.625 C-255.67 138.305 -255.34 136.985 -255 135.625 C-257.07320645 135.41676832 -257.07320645 135.41676832 -258.5625 136.875 Z " fill="#000000" transform="translate(318,19.375)"/>
<path d="M0 0 C7.65843694 0.80615126 14.46772138 3.99441018 20.984375 7.953125 C23.59356981 9.3082882 26.29012409 10.20980221 29.0625 11.1875 C41.42869072 15.84083069 54.4554282 23.90713531 61.375 35.5 C66.53297484 47.44851971 66.430934 61.24754579 66 74 C65.30438965 73.99476318 64.6087793 73.98952637 63.89208984 73.98413086 C60.71973587 73.96325663 57.54739639 73.95030668 54.375 73.9375 C53.28058594 73.92912109 52.18617188 73.92074219 51.05859375 73.91210938 C49.99511719 73.90888672 48.93164062 73.90566406 47.8359375 73.90234375 C46.86188965 73.89710693 45.8878418 73.89187012 44.88427734 73.88647461 C41.84892796 74.00594621 38.99307157 74.49656615 36 75 C34.20181443 75.07558817 32.40130493 75.10824297 30.6015625 75.09765625 C29.62832031 75.09443359 28.65507812 75.09121094 27.65234375 75.08789062 C26.65332031 75.07951172 25.65429688 75.07113281 24.625 75.0625 C23.60277344 75.05798828 22.58054687 75.05347656 21.52734375 75.04882812 C19.01816806 75.037103 16.5091151 75.02069176 14 75 C14.77219432 70.66383189 16.26476139 67.04889008 18 63 C19.27174369 57.751196 19.18391876 52.62186504 19.1875 47.25 C19.19974609 46.29867187 19.21199219 45.34734375 19.22460938 44.3671875 C19.23714474 38.26664404 18.53727131 32.90603838 17 27 C16.34 27 15.68 27 15 27 C15.24556641 28.25683594 15.24556641 28.25683594 15.49609375 29.5390625 C16.02987283 33.20517307 16.09743025 36.67239385 16.0625 40.375 C16.05347656 41.62023437 16.04445313 42.86546875 16.03515625 44.1484375 C16.02355469 45.08945313 16.01195312 46.03046875 16 47 C13.36627175 46.54850373 11.019634 46.00790339 8.53515625 45.0078125 C-2.48802388 40.62571624 -15.38162496 41.79149477 -27 42 C-26.43015939 38.23699852 -25.74237255 35.36858692 -24 32 C-24 31.01 -24 30.02 -24 29 C-26.93789998 30.01306896 -27.95500458 30.93167363 -29.6875 33.5625 C-30.81258768 36.50915822 -31.17609022 38.21259394 -31.375 41.25 C-31.75401018 46.03197953 -33.53232062 49.51056363 -35.7890625 53.69140625 C-37.19677147 56.37513529 -38.15823138 59.09207205 -39 62 C-42.62737384 60.3964092 -45.46292125 58.14322485 -48.5625 55.6875 C-57.38656943 48.96324721 -65.70856436 45.62829924 -76.60644531 44.07470703 C-79.38562302 43.65339189 -81.58557828 43.28496747 -83.92578125 41.67578125 C-85.86830702 38.64544104 -85.71000735 35.53791032 -86 32 C-85.29423828 32.52400391 -85.29423828 32.52400391 -84.57421875 33.05859375 C-83.95160156 33.51363281 -83.32898438 33.96867187 -82.6875 34.4375 C-82.07261719 34.88996094 -81.45773438 35.34242188 -80.82421875 35.80859375 C-75.02161553 39.59830249 -66.64375231 38.55582573 -60 38 C-54.42304555 36.31871226 -51.83468099 33.13843044 -49 28.1875 C-48.3127455 26.80168746 -47.63847848 25.4089501 -47 24 C-46.19175781 24.03480469 -45.38351563 24.06960937 -44.55078125 24.10546875 C-42.94783203 24.14607422 -42.94783203 24.14607422 -41.3125 24.1875 C-39.72888672 24.23970703 -39.72888672 24.23970703 -38.11328125 24.29296875 C-34.58163401 23.96063055 -32.81744571 23.11678496 -30 21 C-29.34 20.01 -28.68 19.02 -28 18 C-25.3000178 17.9129038 -22.69106237 17.91456945 -20 18 C-17.66682687 18.04675713 -17.66682687 18.04675713 -16 17 C-14.6954344 14.00384054 -14.6954344 14.00384054 -14 11 C-13.32453125 10.96003906 -12.6490625 10.92007813 -11.953125 10.87890625 C-9.05741221 10.53995721 -6.69600714 10.12826631 -4 9 C-1.95976278 6.19595537 -0.91745 3.32746791 0 0 Z " fill="#F95475" transform="translate(170,105)"/>
<path d="M0 0 C0.66 0 1.32 0 2 0 C2.33 1.65 2.66 3.3 3 5 C4.32 5 5.64 5 7 5 C6.67 6.32 6.34 7.64 6 9 C4.1875 9.6875 4.1875 9.6875 2 10 C0.25 8.9375 0.25 8.9375 -1 7 C-1.25 3.875 -1.25 3.875 -1 1 C-0.67 0.67 -0.34 0.34 0 0 Z " fill="#000000" transform="translate(85,121)"/>
<path d="M0 0 C1.875 0.3125 1.875 0.3125 4 1 C6.1519437 4.22791555 6.20086443 5.28400809 6 9 C4.68 9 3.36 9 2 9 C-0.37783838 6.62216162 -0.59009208 5.27926335 -1 2 C-0.67 1.34 -0.34 0.68 0 0 Z " fill="#000000" transform="translate(87,113)"/>
<path d="M0 0 C0.99 0.33 1.98 0.66 3 1 C2.125 4.875 2.125 4.875 1 6 C-0.66617115 6.04063832 -2.33388095 6.042721 -4 6 C-3.6875 4.125 -3.6875 4.125 -3 2 C-2.01 1.34 -1.02 0.68 0 0 Z " fill="#000000" transform="translate(97,129)"/>
<path d="M0 0 C1.32 0 2.64 0 4 0 C4 1.32 4 2.64 4 4 C2.68 4.33 1.36 4.66 0 5 C-0.33 4.01 -0.66 3.02 -1 2 C-0.67 1.34 -0.34 0.68 0 0 Z " fill="#000000" transform="translate(118,107)"/>
</svg>
