<?xml version="1.0" standalone="no"?>
<svg viewBox="0 0 200 200" xmlns="http://www.w3.org/2000/svg">
  <path fill="#101828" d="M38.3,-62.1C49,-52.8,56.5,-41,58.5,-29C60.4,-16.9,56.8,-4.6,52.7,5.9C48.5,16.4,43.8,25.1,38.7,36.7C33.6,48.2,28.1,62.6,19.2,65.2C10.3,67.7,-2.1,58.4,-14.8,53.4C-27.6,48.3,-40.8,47.6,-54.1,41.6C-67.3,35.7,-80.7,24.6,-85,10.7C-89.4,-3.2,-84.8,-19.9,-77.9,-35.8C-71,-51.8,-61.9,-67,-48.6,-75.1C-35.2,-83.2,-17.6,-84.2,-1.9,-81.2C13.8,-78.3,27.7,-71.5,38.3,-62.1Z" transform="translate(100 100)" />
</svg>
